<svg xmlns="http://www.w3.org/2000/svg" version="1.1" xmlns:xlink="http://www.w3.org/1999/xlink" xmlns:svgjs="http://svgjs.dev/svgjs" width="2000" height="292" viewBox="0 0 2000 292"><g transform="matrix(1,0,0,1,-1.2121212121212466,0.04247395364475892)"><svg viewBox="0 0 396 58" data-background-color="#000000" preserveAspectRatio="xMidYMid meet" height="292" width="2000" xmlns="http://www.w3.org/2000/svg" xmlns:xlink="http://www.w3.org/1999/xlink"><g id="tight-bounds" transform="matrix(1,0,0,1,0.2400000000000091,-0.008436607230805748)"><svg viewBox="0 0 395.52 58.01687321446163" height="58.01687321446163" width="395.52"><g><svg viewBox="0 0 395.52 58.01687321446163" height="58.01687321446163" width="395.52"><g><svg viewBox="0 0 395.52 58.01687321446163" height="58.01687321446163" width="395.52"><g id="textblocktransform"><svg viewBox="0 0 395.52 58.01687321446163" height="58.01687321446163" width="395.52" id="textblock"><g><svg viewBox="0 0 395.52 58.01687321446163" height="58.01687321446163" width="395.52"><g transform="matrix(1,0,0,1,0,0)"><svg width="395.52" viewBox="4.85 -36.83 253.75000000000003 37.23" height="58.01687321446163" data-palette-color="url(#40e0f681-c3f9-46de-ad31-e40f05461a16)"></svg></g></svg></g></svg></g></svg></g><g></g></svg></g><defs></defs><mask id="de561f09-d642-467c-b90b-a243e1386712"><g id="SvgjsG1403"><svg viewBox="0 0 395.52 58.01687321446163" height="58.01687321446163" width="395.52"><g><svg viewBox="0 0 395.52 58.01687321446163" height="58.01687321446163" width="395.52"><g><svg viewBox="0 0 395.52 58.01687321446163" height="58.01687321446163" width="395.52"><g id="SvgjsG1402"><svg viewBox="0 0 395.52 58.01687321446163" height="58.01687321446163" width="395.52" id="SvgjsSvg1401"><g><svg viewBox="0 0 395.52 58.01687321446163" height="58.01687321446163" width="395.52"><g transform="matrix(1,0,0,1,0,0)"><svg width="395.52" viewBox="4.85 -36.83 253.75000000000003 37.23" height="58.01687321446163" data-palette-color="url(#40e0f681-c3f9-46de-ad31-e40f05461a16)"><path d="M9.68-35.83L9.68-20.13 11.5-20.13Q12.45-20.13 13.01-20.36 13.58-20.6 14.08-21.18L14.08-21.18 26-34.68Q26.55-35.3 27.06-35.56 27.58-35.83 28.38-35.83L28.38-35.83 32.5-35.83 18.85-20.4Q18.32-19.83 17.86-19.43 17.4-19.03 16.88-18.78L16.88-18.78Q17.57-18.55 18.1-18.1 18.63-17.65 19.2-16.98L19.2-16.98 33.45 0 29.25 0Q28.78 0 28.45-0.08 28.13-0.15 27.89-0.28 27.65-0.4 27.45-0.6 27.25-0.8 27.05-1.03L27.05-1.03 14.68-15.25Q14.4-15.55 14.16-15.76 13.93-15.98 13.61-16.13 13.3-16.28 12.89-16.34 12.48-16.4 11.88-16.4L11.88-16.4 9.68-16.4 9.68 0 4.85 0 4.85-35.83 9.68-35.83ZM47.05-25.73L47.05-25.73Q49.82-25.73 52.06-24.8 54.3-23.88 55.86-22.18 57.42-20.48 58.26-18.06 59.1-15.65 59.1-12.68L59.1-12.68Q59.1-9.68 58.26-7.28 57.42-4.88 55.86-3.18 54.3-1.48 52.06-0.56 49.82 0.35 47.05 0.35L47.05 0.35Q44.27 0.35 42.04-0.56 39.8-1.48 38.22-3.18 36.65-4.88 35.8-7.28 34.95-9.68 34.95-12.68L34.95-12.68Q34.95-15.65 35.8-18.06 36.65-20.48 38.22-22.18 39.8-23.88 42.04-24.8 44.27-25.73 47.05-25.73ZM47.05-3.13L47.05-3.13Q50.8-3.13 52.65-5.64 54.5-8.15 54.5-12.65L54.5-12.65Q54.5-17.18 52.65-19.7 50.8-22.23 47.05-22.23L47.05-22.23Q45.15-22.23 43.75-21.58 42.35-20.93 41.41-19.7 40.47-18.48 40.01-16.69 39.55-14.9 39.55-12.65L39.55-12.65Q39.55-10.4 40.01-8.63 40.47-6.85 41.41-5.64 42.35-4.42 43.75-3.78 45.15-3.13 47.05-3.13ZM82.27-25.33L82.27-23.43Q82.27-22.95 82.1-22.51 81.92-22.08 81.65-21.73L81.65-21.73 67.95-3.48 81.77-3.48 81.77 0 62.7 0 62.7-1.85Q62.7-2.18 62.86-2.61 63.02-3.05 63.32-3.45L63.32-3.45 77.1-21.83 63.47-21.83 63.47-25.33 82.27-25.33ZM92.14 0L87.69 0 87.69-25.33 90.34-25.33Q91.29-25.33 91.54-24.4L91.54-24.4 91.87-21.8Q93.27-23.53 95.01-24.63 96.74-25.73 99.04-25.73L99.04-25.73Q101.62-25.73 103.21-24.3 104.79-22.88 105.49-20.45L105.49-20.45Q106.02-21.83 106.88-22.83 107.74-23.83 108.82-24.48 109.89-25.13 111.11-25.43 112.32-25.73 113.57-25.73L113.57-25.73Q115.57-25.73 117.13-25.09 118.69-24.45 119.78-23.23 120.87-22 121.44-20.21 122.02-18.43 122.02-16.13L122.02-16.13 122.02 0 117.57 0 117.57-16.13Q117.57-19.1 116.27-20.64 114.97-22.18 112.49-22.18L112.49-22.18Q111.39-22.18 110.41-21.79 109.42-21.4 108.67-20.65 107.92-19.9 107.48-18.76 107.04-17.63 107.04-16.13L107.04-16.13 107.04 0 102.59 0 102.59-16.13Q102.59-19.18 101.37-20.68 100.14-22.18 97.79-22.18L97.79-22.18Q96.14-22.18 94.73-21.29 93.32-20.4 92.14-18.88L92.14-18.88 92.14 0ZM147.34-16.2L147.34 0 145.37 0Q144.72 0 144.32-0.2 143.92-0.4 143.79-1.05L143.79-1.05 143.29-3.4Q142.29-2.5 141.34-1.79 140.39-1.07 139.34-0.59 138.29-0.1 137.1 0.15 135.92 0.4 134.47 0.4L134.47 0.4Q132.99 0.4 131.7-0.01 130.42-0.43 129.47-1.25 128.52-2.08 127.95-3.34 127.39-4.6 127.39-6.33L127.39-6.33Q127.39-7.83 128.22-9.21 129.04-10.6 130.88-11.68 132.72-12.75 135.69-13.44 138.67-14.13 142.97-14.23L142.97-14.23 142.97-16.2Q142.97-19.15 141.7-20.66 140.44-22.18 137.97-22.18L137.97-22.18Q136.34-22.18 135.23-21.76 134.12-21.35 133.3-20.84 132.49-20.33 131.9-19.91 131.32-19.5 130.74-19.5L130.74-19.5Q130.29-19.5 129.95-19.74 129.62-19.98 129.42-20.33L129.42-20.33 128.62-21.75Q130.72-23.78 133.14-24.78 135.57-25.78 138.52-25.78L138.52-25.78Q140.64-25.78 142.29-25.08 143.94-24.38 145.07-23.13 146.19-21.88 146.77-20.1 147.34-18.32 147.34-16.2L147.34-16.2ZM135.79-2.73L135.79-2.73Q136.97-2.73 137.94-2.96 138.92-3.2 139.78-3.64 140.64-4.08 141.43-4.7 142.22-5.33 142.97-6.13L142.97-6.13 142.97-11.4Q139.89-11.3 137.74-10.91 135.59-10.53 134.24-9.9 132.89-9.28 132.28-8.43 131.67-7.58 131.67-6.53L131.67-6.53Q131.67-5.53 131.99-4.8 132.32-4.08 132.87-3.61 133.42-3.15 134.17-2.94 134.92-2.73 135.79-2.73ZM160.79-35.83L188.84-35.83 188.84-31.75 177.26-31.75 177.26 0 172.41 0 172.41-31.75 160.79-31.75 160.79-35.83ZM198.01-25.73L198.01-25.73Q200.28-25.73 202.21-24.96 204.13-24.2 205.53-22.76 206.93-21.33 207.72-19.21 208.51-17.1 208.51-14.4L208.51-14.4Q208.51-13.35 208.28-13 208.06-12.65 207.43-12.65L207.43-12.65 190.58-12.65Q190.63-10.25 191.23-8.47 191.83-6.7 192.88-5.51 193.93-4.33 195.38-3.74 196.83-3.15 198.63-3.15L198.63-3.15Q200.31-3.15 201.52-3.54 202.73-3.93 203.61-4.38 204.48-4.83 205.07-5.21 205.66-5.6 206.08-5.6L206.08-5.6Q206.63-5.6 206.93-5.18L206.93-5.18 208.18-3.55Q207.36-2.55 206.21-1.81 205.06-1.07 203.75-0.6 202.43-0.13 201.03 0.11 199.63 0.35 198.26 0.35L198.26 0.35Q195.63 0.35 193.42-0.54 191.21-1.43 189.6-3.14 187.98-4.85 187.08-7.38 186.18-9.9 186.18-13.18L186.18-13.18Q186.18-15.83 187-18.13 187.81-20.43 189.33-22.11 190.86-23.8 193.06-24.76 195.26-25.73 198.01-25.73ZM198.11-22.45L198.11-22.45Q194.88-22.45 193.03-20.59 191.18-18.73 190.73-15.43L190.73-15.43 204.51-15.43Q204.51-16.98 204.08-18.26 203.66-19.55 202.83-20.49 202.01-21.43 200.82-21.94 199.63-22.45 198.11-22.45ZM232.63-22.43L231.46-20.83Q231.26-20.55 231.06-20.4 230.86-20.25 230.48-20.25L230.48-20.25Q230.11-20.25 229.67-20.56 229.23-20.88 228.56-21.25 227.88-21.63 226.92-21.94 225.96-22.25 224.56-22.25L224.56-22.25Q222.71-22.25 221.28-21.59 219.86-20.93 218.89-19.68 217.93-18.43 217.44-16.65 216.96-14.88 216.96-12.68L216.96-12.68Q216.96-10.38 217.48-8.59 218.01-6.8 218.96-5.59 219.91-4.38 221.27-3.74 222.63-3.1 224.33-3.1L224.33-3.1Q225.96-3.1 227.01-3.49 228.06-3.88 228.76-4.35 229.46-4.83 229.91-5.21 230.36-5.6 230.81-5.6L230.81-5.6Q231.38-5.6 231.66-5.18L231.66-5.18 232.91-3.55Q231.26-1.53 228.78-0.59 226.31 0.35 223.56 0.35L223.56 0.35Q221.18 0.35 219.14-0.53 217.11-1.4 215.61-3.06 214.11-4.73 213.24-7.15 212.38-9.58 212.38-12.68L212.38-12.68Q212.38-15.5 213.17-17.9 213.96-20.3 215.47-22.04 216.98-23.78 219.21-24.75 221.43-25.73 224.31-25.73L224.31-25.73Q226.96-25.73 229.01-24.86 231.06-24 232.63-22.43L232.63-22.43ZM241.98 0L237.53 0 237.53-36.83 241.98-36.83 241.98-21.93Q243.6-23.65 245.58-24.69 247.55-25.73 250.13-25.73L250.13-25.73Q252.2-25.73 253.79-25.04 255.38-24.35 256.44-23.09 257.5-21.83 258.05-20.05 258.6-18.28 258.6-16.13L258.6-16.13 258.6 0 254.15 0 254.15-16.13Q254.15-19 252.84-20.59 251.53-22.18 248.83-22.18L248.83-22.18Q246.85-22.18 245.14-21.23 243.43-20.28 241.98-18.65L241.98-18.65 241.98 0Z" opacity="1" transform="matrix(1,0,0,1,0,0)" fill="white" class="wordmark-text-0" id="SvgjsPath1400"></path></svg></g></svg></g></svg></g></svg></g><g></g></svg></g><defs><mask></mask></defs></svg><rect width="395.52" height="58.01687321446163" fill="black" stroke="none" visibility="hidden"></rect></g></mask><linearGradient x1="0" x2="1" y1="0.5" y2="0.5" id="40e0f681-c3f9-46de-ad31-e40f05461a16"><stop stop-color="#f00b51" offset="0"></stop><stop stop-color="#730062" offset="1"></stop></linearGradient><rect width="395.52" height="58.01687321446163" fill="url(#40e0f681-c3f9-46de-ad31-e40f05461a16)" mask="url(#de561f09-d642-467c-b90b-a243e1386712)" data-fill-palette-color="primary"></rect></svg><rect width="395.52" height="58.01687321446163" fill="none" stroke="none" visibility="hidden"></rect></g></svg></g></svg>